HIERARCHY
ROOT SpineBase
{
  OFFSET 0.000000 0.000000 0.000000
  CHANNELS 6 Xposition Yposition Zposition Zrotation Xrotation Yrotation
  JOINT SpineMid
  {
    OFFSET -0.000000 26.075678 0.000000
    CHANNELS 3 Zrotation Xrotation Yrotation
    JOINT SpineShoulder
    {
      OFFSET -0.328763 19.491780 -0.578805
      CHANNELS 3 Zrotation Xrotation Yrotation
      JOINT Neck
      {
        OFFSET -0.145262 6.448539 -0.432556
        CHANNELS 3 Zrotation Xrotation Yrotation
        JOINT Head
        {
          OFFSET -0.973736 13.284062 -2.915714
          CHANNELS 3 Zrotation Xrotation Yrotation
          End Site
          {
            OFFSET 0 0 0
          }
        }
      }
      JOINT ShoulderLeft
      {
        OFFSET -14.434920 -1.495286 1.465985
        CHANNELS 3 Zrotation Xrotation Yrotation
        JOINT ElbowLeft
        {
          OFFSET 0.286329 4.541910 -28.372029
          CHANNELS 3 Zrotation Xrotation Yrotation
          JOINT WristLeft
          {
            OFFSET 4.433217 -24.923322 8.442332
            CHANNELS 3 Zrotation Xrotation Yrotation
            JOINT HandLeft
            {
              OFFSET 6.537464 -3.909376 -3.321378
              CHANNELS 3 Zrotation Xrotation Yrotation
              JOINT HandTipLeft
              {
                OFFSET 0.224782 -0.102038 -0.894552
                CHANNELS 3 Zrotation Xrotation Yrotation
                End Site
                {
                  OFFSET 0 0 0
                }
              }
              JOINT ThumbLeft
              {
                OFFSET -0.258453 0.510455 -2.106518
                CHANNELS 3 Zrotation Xrotation Yrotation
                End Site
                {
                  OFFSET 0 0 0
                }
              }
            }
          }
        }
      }
      JOINT ShoulderRight
      {
        OFFSET 13.928809 -3.707303 -3.089466
        CHANNELS 3 Zrotation Xrotation Yrotation
        JOINT ElbowRight
        {
          OFFSET 3.336245 -22.899839 -1.740388
          CHANNELS 3 Zrotation Xrotation Yrotation
          JOINT WristRight
          {
            OFFSET -3.747898 -18.511753 -9.716471
            CHANNELS 3 Zrotation Xrotation Yrotation
            JOINT HandRight
            {
              OFFSET -4.118875 -6.278109 -3.708210
              CHANNELS 3 Zrotation Xrotation Yrotation
              JOINT HandTipRight
              {
                OFFSET -1.449157 -5.872077 -2.382995
                CHANNELS 3 Zrotation Xrotation Yrotation
                End Site
                {
                  OFFSET 0 0 0
                }
              }
              JOINT ThumbRight
              {
                OFFSET 1.402704 -1.721489 -2.128334
                CHANNELS 3 Zrotation Xrotation Yrotation
                End Site
                {
                  OFFSET 0 0 0
                }
              }
            }
          }
        }
      }
    }
  }
  JOINT HipLeft
  {
    OFFSET -6.035209 0.865680 -2.466395
    CHANNELS 3 Zrotation Xrotation Yrotation
    JOINT KneeLeft
    {
      OFFSET 0.494415 -27.221553 5.003277
      CHANNELS 3 Zrotation Xrotation Yrotation
      JOINT AnkleLeft
      {
        OFFSET -4.941709 -34.017852 10.461936
        CHANNELS 3 Zrotation Xrotation Yrotation
        JOINT FootLeft
        {
          OFFSET -1.997291 -1.753048 -15.675134
          CHANNELS 3 Zrotation Xrotation Yrotation
          End Site
          {
            OFFSET 0 0 0
          }
        }
      }
    }
  }
  JOINT HipRight
  {
    OFFSET 5.572824 1.458081 -3.826149
    CHANNELS 3 Zrotation Xrotation Yrotation
    JOINT KneeRight
    {
      OFFSET -1.260608 -26.264302 2.397926
      CHANNELS 3 Zrotation Xrotation Yrotation
      JOINT AnkleRight
      {
        OFFSET 1.792146 -33.979614 12.818973
        CHANNELS 3 Zrotation Xrotation Yrotation
        JOINT FootRight
        {
          OFFSET -0.995234 -2.939684 -13.058996
          CHANNELS 3 Zrotation Xrotation Yrotation
          End Site
          {
            OFFSET 0 0 0
          }
        }
      }
    }
  }
}
MOTION
Frames: 8
Frame Time: 0.033333
21.247195 68.575060 309.720384 0.000000 0.000000 6.681124 -0.000000 0.000000 -6.681124 -0.000000 0.000000 0.000000 -0.000000 0.000000 0.000000 0.000000 0.000000 0.000000 -0.000000 0.000000 0.000000 -0.000000 0.000000 0.000000 -0.000000 0.000000 0.000000 -0.000000 0.000000 0.000000 0.000000 0.000000 0.000000 0.000000 0.000000 0.000000 -0.000000 0.000000 0.000000 -0.000000 0.000000 0.000000 -0.000000 0.000000 0.000000 -0.000000 0.000000 0.000000 0.000000 0.000000 0.000000 0.000000 0.000000 0.000000 -0.000000 0.000000 -6.681124 -0.000000 0.000000 0.000000 -0.000000 0.000000 0.000000 0.000000 0.000000 0.000000 -0.000000 0.000000 -6.681124 -0.000000 0.000000 0.000000 -0.000000 0.000000 0.000000 0.000000 0.000000 0.000000
21.244404 68.559516 309.614964 0.203833 0.199899 7.032044 -0.226773 -0.173440 -7.032743 -0.000000 0.000000 0.000000 0.362516 1.507072 0.185770 0.000000 0.000000 0.000000 -0.330126 -2.359199 -1.701016 0.619806 4.829150 2.251866 -3.345340 -8.485939 -9.378846 0.683232 -5.760353 2.919047 0.000000 0.000000 0.000000 0.000000 0.000000 0.000000 -0.000000 0.000000 0.000000 0.705120 -2.068684 0.062161 3.340689 -3.576534 1.402679 -3.834231 4.445799 -0.924807 0.000000 0.000000 0.000000 0.000000 0.000000 0.000000 2.142252 -0.645439 -6.576535 -5.031859 -0.219914 -1.175108 3.716467 -6.966044 -0.352549 0.000000 0.000000 0.000000 -0.425178 0.923532 -7.112833 0.332758 -1.063953 0.084479 -0.297551 -2.957256 2.612405 0.000000 0.000000 0.000000
21.249149 68.551719 309.513629 0.407884 0.383761 7.327305 -0.453504 -0.328596 -7.329971 -0.000000 0.000000 0.000000 0.678145 2.845896 0.342369 0.000000 0.000000 0.000000 -0.662634 -4.341288 -3.144092 0.957373 8.905450 4.116318 -8.986958 -17.201046 -21.789288 3.989739 -8.150206 9.527827 0.000000 0.000000 0.000000 0.000000 0.000000 0.000000 -0.000000 0.000000 0.000000 1.387857 -4.031405 0.139815 6.373596 -6.697941 2.877142 -7.080609 8.406489 -1.551008 0.000000 0.000000 0.000000 0.000000 0.000000 0.000000 3.836222 -1.101902 -6.480825 -9.249101 -0.487158 -2.164968 7.336653 -15.601791 -0.842634 0.000000 0.000000 0.000000 -0.822092 1.771875 -7.481129 0.639273 -2.034527 0.167153 -0.462037 -5.646833 5.037189 0.000000 0.000000 0.000000
21.261431 68.551670 309.416380 0.612250 0.551709 7.565281 -0.679578 -0.466267 -7.570994 -0.000000 0.000000 0.000000 0.951621 4.029018 0.474225 0.000000 0.000000 0.000000 -0.968121 -5.940966 -4.318308 1.107494 12.200515 5.615903 -17.328776 -24.643400 -37.038536 9.342667 -6.575482 18.782827 0.000000 0.000000 0.000000 0.000000 0.000000 0.000000 -0.000000 0.000000 0.000000 2.042411 -5.868231 0.228659 8.806293 -9.069399 4.266605 -9.524856 11.500457 -1.985859 0.000000 0.000000 0.000000 0.000000 0.000000 0.000000 5.191069 -1.391608 -6.386913 -12.693127 -0.813216 -2.984744 10.665865 -25.047587 -1.261659 0.000000 0.000000 0.000000 -1.190415 2.515699 -7.783062 0.910930 -2.885106 0.244147 -0.524889 -7.811879 7.072692 0.000000 0.000000 0.000000
21.281249 68.559369 309.323216 0.817028 0.703855 7.744573 -0.113133 -0.166670 -7.718590 0.060468 -0.094910 0.033011 0.403467 4.638413 0.528133 0.000000 0.000000 0.000000 -2.020537 -7.586192 -5.291252 1.147072 14.705166 6.757868 -27.250481 -29.248417 -53.213440 15.109276 -2.091371 28.513901 0.000000 0.000000 0.000000 0.000000 0.000000 0.000000 0.188460 -0.674516 -0.166001 1.698919 -7.312920 0.425305 10.413969 -10.527714 5.424716 -11.018725 13.478055 -2.367925 0.000000 0.000000 0.000000 0.000000 0.000000 0.000000 6.283437 -1.524858 -6.288638 -15.391840 -1.211831 -3.643517 13.443486 -33.498883 -1.383785 0.000000 0.000000 0.000000 -1.530014 3.126987 -8.016012 1.437095 -4.380857 0.400509 -0.843114 -8.432627 8.465352 0.000000 0.000000 0.000000
21.308603 68.574815 309.234139 1.022315 0.840298 7.863956 -0.154245 -0.204802 -7.833596 0.073948 -0.123359 0.040679 0.421722 5.476886 0.608399 0.000000 0.000000 0.000000 -2.393859 -8.492800 -5.925750 1.135604 16.420572 7.540828 -36.533240 -30.873227 -67.567652 20.192319 3.621000 37.444367 0.000000 0.000000 0.000000 0.000000 0.000000 0.000000 0.183659 -0.884202 -0.211250 2.107363 -8.701460 0.548371 11.062541 -11.018370 6.258397 -11.488505 14.215204 -2.810744 0.000000 0.000000 0.000000 0.000000 0.000000 0.000000 7.167704 -1.502153 -6.181359 -17.370417 -1.699529 -4.147572 15.371904 -39.015321 -1.131979 0.000000 0.000000 0.000000 -1.840822 3.580695 -8.177682 1.630167 -5.018577 0.458283 -0.883159 -8.842433 9.190331 0.000000 0.000000 0.000000
21.348240 68.586455 309.151441 1.258329 0.949215 7.955506 -0.194215 -0.234414 -7.920547 0.093840 -0.155260 0.049963 0.366801 6.248351 0.671650 0.000000 0.000000 0.000000 -2.656396 -8.742291 -6.058627 1.125023 16.774104 7.680638 -45.336880 -29.908818 -79.435971 26.809850 8.417725 44.888667 0.000000 0.000000 0.000000 0.000000 0.000000 0.000000 0.281903 -1.311033 -0.298761 2.485787 -9.962582 0.701686 9.672180 -9.301164 6.363323 -10.543848 11.022213 -2.717912 0.000000 0.000000 0.000000 0.000000 0.000000 0.000000 8.484773 -1.203323 -5.978004 -19.798886 -2.541965 -4.813782 17.659211 -45.413263 -0.527891 0.000000 0.000000 0.000000 -1.883937 3.509498 -8.263737 1.306813 -4.995076 0.381237 -0.828010 -8.464432 9.270327 0.000000 0.000000 0.000000
21.396004 68.613309 309.069617 1.473827 1.053863 7.996600 -0.256178 -0.277264 -7.958841 0.108618 -0.192481 0.057234 0.366656 6.871532 0.727247 0.000000 0.000000 0.000000 -2.687864 -8.178880 -5.583546 1.131769 15.460732 7.048299 -51.613143 -27.862332 -91.947593 32.613056 17.181845 59.021393 0.000000 0.000000 0.000000 0.000000 0.000000 0.000000 0.276120 -1.585730 -0.355475 2.979695 -11.457882 0.892727 7.793840 -6.614475 6.013756 -8.786210 10.218644 -3.508613 0.000000 0.000000 0.000000 0.000000 0.000000 0.000000 9.484577 -0.748062 -5.814037 -21.105631 -3.442384 -5.222365 17.877384 -44.915751 0.071549 0.000000 0.000000 0.000000 -2.164528 3.594383 -8.323390 1.357143 -5.104211 0.389150 -0.881984 -7.158596 8.458881 0.000000 0.000000 0.000000
